<?xml version="1.0" encoding="utf-8"?>
<!-- Svg Vector Icons : http://www.onlinewebfonts.com/icon -->
<!DOCTYPE svg PUBLIC "-//W3C//DTD SVG 1.1//EN" "http://www.w3.org/Graphics/SVG/1.1/DTD/svg11.dtd">
<svg version="1.1" xmlns="http://www.w3.org/2000/svg" xmlns:xlink="http://www.w3.org/1999/xlink" x="0px" y="0px" viewBox="0 0 256 256" enable-background="new 0 0 256 256" xml:space="preserve">
<metadata> Svg Vector Icons : http://www.onlinewebfonts.com/icon </metadata>
<g><g><g><path fill="#FFDB6E" d="M21.2,42.6c-4.1,1.3-8.3,5-10.1,9l-1,2.2v66.4v66.5l1.6,3c1.9,3.5,4,5.5,7.7,7.2l2.6,1.2l18.2,0.1l18.1,0.1l0.2,5.2c0.1,5.7,0.6,6.8,3.7,9l1.6,1l41.7-0.1c40.9-0.1,41.8-0.1,43-1.1c2.4-1.7,3.2-4.3,3.2-9.4v-4.6l18.2-0.1l18.2-0.1l3.2-1.6c3.5-1.7,5.9-4.1,7.6-7.7c1-2.1,1.1-2.8,1.2-14.6l0.1-12.4l3.1-1.6l3.1-1.6l12.4,12.4c8.1,8.1,13,12.5,13.8,12.7c2.8,0.7,4.6-0.1,8.3-3.7c2-1.9,3.8-4,4.2-4.7c0.9-1.7,0.9-3.9,0-5.8c-0.4-0.8-6-6.8-12.6-13.3l-11.9-11.9l2-4.1c3.9-7.7,5.3-14.9,4.9-23.3c-0.7-11.8-5.9-23-14.5-31.1c-3.2-3-8-6.3-11.2-7.9l-1.8-0.9V66.2c0-10.2-0.1-11.3-1-13.9c-1.3-3.3-4.5-6.9-7.8-8.6l-2.4-1.3l-83.4-0.1C59.9,42.3,21.9,42.4,21.2,42.6z M188.8,50.3c2.7,1.5,4.4,4.3,4.4,7.3v2.2H105H16.9v-2.3c0-3.7,2.6-7,6.6-8.2c0.7-0.2,37.7-0.4,82.3-0.3l81,0.1L188.8,50.3z M193.2,70.8v3.9l-1.8-0.3c-13.6-2.4-24.9-0.1-35.9,7.1c-5.6,3.7-12.2,11.3-15.3,17.6c-5.8,11.6-6.2,26.6-1.1,38.4c1,2.2,1.7,4.2,1.7,4.5c0,0.9-2.9,8.2-3.4,8.5c-1,0.7-5.9-10.7-15.2-35.5c-6.1-16.1-10.5-26.8-12.6-30.6c-1.9-3.4-4.1-5.1-6.5-5.1c-1.8,0-2.2,0.3-4.2,2.3c-2.9,3-6.1,9.3-14.1,27.9c-3.6,8.4-7.4,17.1-8.5,19.5l-2,4.3l-1-1.9c-0.5-1-2.7-6.2-4.9-11.6c-5.7-14.3-7.7-17.9-10.5-19.4c-4.1-2.1-8,0.4-16.8,10.8l-4.7,5.6h-9.8h-9.7V92V67H105h88.1V70.8L193.2,70.8z M192.3,82c6.7,2,11.2,4.5,16.2,9.2c6.9,6.6,11.4,15.8,12,24.7l0.3,4h-13.4c-12.3,0-13.4,0-14.2-0.9c-0.5-0.5-3.5-4.4-6.8-8.7c-6.4-8.4-12.5-15-15.3-16.3c-3.5-1.7-6.6-0.8-9.4,2.6c-3.2,4-8.6,14.8-14.4,28.9c-1.4,3.5-2.7,6.3-2.9,6.3c-0.1,0-0.7-1.6-1.1-3.5c-1.1-4.9-1-13.3,0.2-18c4-15.1,15.8-26.2,31.2-29.3C179.7,80,187.2,80.4,192.3,82z M106.1,93.4c1.1,2.7,4.4,10.9,7.2,18.3c14.3,38,17.8,45.2,22.1,47c3.6,1.5,6.3-0.5,9-6.3c0.7-1.6,1.3-2.9,1.4-3c0.1-0.1,1.6,1.3,3.4,3c11.2,11.1,26.6,15.5,42.4,12.3l1.5-0.3v3.7v3.6H105H16.9v-23.8v-23.8h10.6c12.6,0,11.8,0.3,17.2-6.2c4.6-5.6,9.3-10.4,10.1-10.4c0.7,0,3,5.1,8,17.3c5.8,14.2,7.7,17,11.7,17c3.6,0,5.9-3.9,16.4-28.8c8-18.7,11.6-25.9,12.5-25C103.7,88.4,104.9,90.8,106.1,93.4z M172,103.8c1.8,1.9,5.9,6.9,9,11.1c3.2,4.2,6.8,8.5,8,9.6l2.2,2h14.5c8.2,0,14.5,0.2,14.5,0.4c0,0.2-0.4,1.9-1,3.7c-3.2,10.6-10.7,19.3-20.8,24.4c-8.7,4.4-20.4,5-29.9,1.7c-7-2.5-15-8.5-18.6-13.9c-1.5-2.3-1.8-1.2,3.6-14.2c7.1-17.1,12.8-28.2,14.5-28.2C168.5,100.3,170.2,101.9,172,103.8z M227.8,161.4l11.1,11.1l-2,2c-1.1,1.1-2.2,2-2.5,2c-0.3,0-5.4-4.9-11.4-11l-10.9-11l2.1-2.1c1.1-1.2,2.2-2.1,2.4-2.1C216.6,150.3,221.7,155.3,227.8,161.4z M193.1,182.1c-0.2,3.2-0.4,4-1.6,5.5c-0.8,1-2.2,2.2-3.3,2.7c-1.9,0.9-4.9,0.9-83.1,0.9c-71.9,0-81.3-0.1-82.8-0.7c-3.7-1.6-5.4-4.3-5.4-9v-3.1h88.2h88.2L193.1,182.1z M144.5,202.6l-0.1,4.2H105H65.7l-0.1-4.2l-0.1-4.1H105h39.6L144.5,202.6z"/></g></g></g>
</svg>